<svg width="47" height="20" viewBox="0 0 47 20" fill="none" xmlns="http://www.w3.org/2000/svg">
<path fill-rule="evenodd" clip-rule="evenodd" d="M18.8207 5.68072C18.6007 4.77334 18.2065 3.91149 17.6545 3.14514C16.7631 1.90769 15.5051 0.981916 14.0586 0.498843C12.6121 0.0157686 11.0502 -0.000137702 9.59415 0.453375C8.13807 0.906888 6.8615 1.80685 5.9451 3.02589C5.0287 4.24493 4.5189 5.7213 4.48784 7.24605C4.45678 8.77081 4.90603 10.2667 5.77203 11.5221C6.63802 12.7774 7.87688 13.7286 9.31329 14.241C10.7497 14.7535 12.3109 14.8012 13.7759 14.3774L13.3534 12.9169C12.1948 13.252 10.9601 13.2143 9.82417 12.809C8.68819 12.4037 7.70844 11.6515 7.02357 10.6587C6.3387 9.6659 5.98341 8.48287 6.00797 7.27702C6.03253 6.07117 6.43571 4.90358 7.16044 3.93951C7.88518 2.97543 8.89475 2.2637 10.0463 1.90504C11.1978 1.54638 12.433 1.55896 13.577 1.941C14.721 2.32304 15.7159 3.05518 16.4208 4.03382C16.8064 4.56912 17.0946 5.16334 17.2765 5.78925C16.7647 6.09121 16.4214 6.64826 16.4214 7.28551C16.4214 8.24429 17.1986 9.02153 18.1574 9.02153C19.1162 9.02153 19.8934 8.24429 19.8934 7.28551C19.8934 6.56165 19.4504 5.94128 18.8207 5.68072ZM15.9873 7.3942C15.9873 6.45244 15.6885 5.53499 15.1337 4.77393C14.579 4.01288 13.7971 3.4475 12.9006 3.15921C12.004 2.87091 11.0391 2.87458 10.1448 3.16968C9.25049 3.46478 8.47289 4.03608 7.92398 4.80133C7.37507 5.56657 7.08318 6.48628 7.09034 7.428C7.09749 8.36973 7.40333 9.28489 7.9638 10.0417C8.52428 10.7985 9.31047 11.3579 10.2092 11.6394C11.1079 11.9209 12.0727 11.9099 12.9648 11.608L11.5388 7.3942H15.9873ZM2.54983 11.9795C1.97573 10.8541 1.6194 9.63367 1.49625 8.38217C0.950908 8.08945 0.580078 7.51381 0.580078 6.85155C0.580078 5.89277 1.35732 5.11553 2.3161 5.11553C3.27488 5.11553 4.05212 5.89277 4.05212 6.85155C4.05212 7.52069 3.67355 8.1014 3.11891 8.3912C3.23653 9.38425 3.52924 10.3514 3.98605 11.2468C4.59471 12.4399 5.47738 13.4719 6.56174 14.258C7.64611 15.0442 8.90131 15.5624 10.2245 15.7699C11.5477 15.9775 12.9013 15.8686 14.1743 15.4522L14.6755 16.9846C13.1605 17.4802 11.5495 17.6098 9.97466 17.3627C8.39982 17.1157 6.90592 16.4991 5.61534 15.5634C4.32477 14.6277 3.27424 13.3995 2.54983 11.9795ZM17.2536 13.2396L17.9176 10.4587L18.7813 13.604L18.0674 16.2251H16.0654L14.0833 9.60003H16.28L17.2536 13.2396ZM21.9366 16.2251H19.8297L18.0124 9.60003H20.2391L21.9366 16.2251ZM21.9565 9.60003H23.9685L22.1712 15.8806L21.2725 12.3509L21.9565 9.60003ZM26.5197 16.2251H25.636L24.313 14.9021V12.2461L25.636 10.923H26.5197V16.2251ZM26.8692 14.0983V13.1747H28.0324V12.2461H26.8692V10.923H28.7413L30.0644 12.2461V14.0983H26.8692ZM26.8692 16.2251V14.987H29.8347V15.5611L29.1757 16.2251H26.8692ZM33.2146 8.90108V16.2251H31.0079V8.90108H33.2146ZM34.5526 12.2461H33.5641V11.5771L34.2131 10.923H35.4213L36.7493 12.2461V14.9021L35.4213 16.2251H33.5641V14.987H34.5526V12.2461ZM37.7628 9.60003H39.9695V12.5606H42.0065V13.8636H39.9695V16.2251H37.7628V9.60003ZM40.319 10.923V9.60003H43.6839V11.7967H41.4772V10.923H40.319ZM44.3429 10.923H46.5546V16.2251H44.3429V10.923ZM44.3429 8.85615H46.5546V10.264H44.3429V8.85615ZM25.46 19.8813L26.1246 17.8932H25.8548L25.3066 19.5178L24.7585 17.8932H24.4972L23.9377 19.5093L23.4009 17.8932H23.1083L23.7729 19.8813H24.0768L24.6193 18.2937L25.1618 19.8813H25.46ZM27.6733 19.2196C27.6771 19.1855 27.679 19.158 27.679 19.1372C27.679 18.9857 27.6468 18.8513 27.5825 18.7339C27.52 18.6165 27.4319 18.5256 27.3183 18.4612C27.2066 18.395 27.0788 18.3618 26.9349 18.3618C26.791 18.3618 26.6613 18.395 26.5458 18.4612C26.4322 18.5256 26.3422 18.6165 26.276 18.7339C26.2116 18.8513 26.1794 18.9829 26.1794 19.1287C26.1794 19.2764 26.2125 19.4089 26.2788 19.5263C26.347 19.6437 26.4426 19.7355 26.5657 19.8018C26.6887 19.8662 26.8298 19.8984 26.9889 19.8984C27.1138 19.8984 27.2265 19.8775 27.3268 19.8359C27.4291 19.7942 27.5143 19.7336 27.5825 19.6541L27.4319 19.478C27.3221 19.5992 27.1773 19.6598 26.9974 19.6598C26.8497 19.6598 26.7257 19.62 26.6253 19.5405C26.5269 19.4591 26.4691 19.3521 26.4521 19.2196H27.6733ZM26.6054 18.7112C26.6944 18.6316 26.8042 18.5919 26.9349 18.5919C27.0655 18.5919 27.1744 18.6326 27.2615 18.714C27.3505 18.7935 27.4026 18.8967 27.4177 19.0236H26.4521C26.4672 18.8948 26.5183 18.7907 26.6054 18.7112ZM29.2477 18.4584C29.1322 18.394 29.0015 18.3618 28.8557 18.3618C28.7478 18.3618 28.6484 18.3827 28.5575 18.4243C28.4666 18.4641 28.3909 18.5237 28.3303 18.6032V17.7739H28.0576V19.8813H28.3189V19.6428C28.3795 19.7261 28.4562 19.7895 28.549 19.833C28.6418 19.8766 28.744 19.8984 28.8557 19.8984C29.0015 19.8984 29.1322 19.8662 29.2477 19.8018C29.3632 19.7374 29.4531 19.6475 29.5175 19.532C29.5838 19.4146 29.6169 19.2802 29.6169 19.1287C29.6169 18.9772 29.5838 18.8437 29.5175 18.7282C29.4531 18.6127 29.3632 18.5228 29.2477 18.4584ZM29.0915 19.5945C29.0157 19.638 28.9296 19.6598 28.833 19.6598C28.7383 19.6598 28.6522 19.638 28.5745 19.5945C28.4969 19.549 28.4363 19.4865 28.3928 19.407C28.3492 19.3256 28.3274 19.2328 28.3274 19.1287C28.3274 19.0245 28.3492 18.9327 28.3928 18.8532C28.4363 18.7718 28.4969 18.7093 28.5745 18.6657C28.6522 18.6222 28.7383 18.6004 28.833 18.6004C28.9296 18.6004 29.0157 18.6222 29.0915 18.6657C29.1691 18.7093 29.2297 18.7718 29.2732 18.8532C29.3187 18.9327 29.3414 19.0245 29.3414 19.1287C29.3414 19.2328 29.3187 19.3256 29.2732 19.407C29.2297 19.4865 29.1691 19.549 29.0915 19.5945ZM30.833 19.8501C30.9467 19.8823 31.065 19.8984 31.1881 19.8984C31.3888 19.8984 31.5469 19.8586 31.6624 19.7791C31.7798 19.6977 31.8385 19.5888 31.8385 19.4525C31.8385 19.3502 31.812 19.2707 31.7589 19.2139C31.7059 19.1571 31.6416 19.1173 31.5658 19.0946C31.492 19.07 31.3945 19.0473 31.2733 19.0264C31.1824 19.0094 31.1114 18.9942 31.0603 18.981C31.011 18.9677 30.9694 18.9469 30.9353 18.9185C30.9012 18.8901 30.8842 18.8513 30.8842 18.8021C30.8842 18.7396 30.9145 18.6894 30.9751 18.6515C31.0356 18.6137 31.1237 18.5947 31.2392 18.5947C31.4058 18.5947 31.5507 18.6345 31.6737 18.714L31.7902 18.4982C31.7258 18.4565 31.6434 18.4234 31.5431 18.3988C31.4427 18.3741 31.3424 18.3618 31.242 18.3618C31.0508 18.3618 30.8984 18.4035 30.7848 18.4868C30.6712 18.5682 30.6144 18.6771 30.6144 18.8134C30.6144 18.9195 30.6418 19.0018 30.6967 19.0605C30.7516 19.1192 30.8169 19.1609 30.8927 19.1855C30.9703 19.2101 31.0697 19.2319 31.1909 19.2508C31.2799 19.266 31.3481 19.2802 31.3954 19.2934C31.4446 19.3048 31.4853 19.3237 31.5175 19.3502C31.5497 19.3767 31.5658 19.4127 31.5658 19.4581C31.5658 19.5945 31.4465 19.6626 31.2079 19.6626C31.1114 19.6626 31.0158 19.6484 30.9211 19.62C30.8264 19.5916 30.7459 19.5538 30.6797 19.5064L30.5661 19.7223C30.6304 19.7734 30.7194 19.816 30.833 19.8501ZM32.8779 19.8728C32.9366 19.8539 32.9858 19.8274 33.0256 19.7933L32.9404 19.5973C32.8817 19.6446 32.8107 19.6683 32.7274 19.6683C32.6516 19.6683 32.5929 19.6465 32.5513 19.603C32.5115 19.5594 32.4916 19.497 32.4916 19.4155V18.6004H32.9234V18.376H32.4916V18.0466H32.219V18.376H31.9634V18.6004H32.219V19.4269C32.219 19.5784 32.2606 19.6948 32.344 19.7762C32.4273 19.8577 32.5447 19.8984 32.6961 19.8984C32.7586 19.8984 32.8192 19.8899 32.8779 19.8728ZM34.4998 19.8813H34.7583V18.376H34.4856V19.1542C34.4856 19.3133 34.444 19.4364 34.3607 19.5235C34.2774 19.6106 34.1637 19.6541 34.0198 19.6541C33.8892 19.6541 33.7888 19.6172 33.7188 19.5433C33.6487 19.4676 33.6137 19.3568 33.6137 19.211V18.376H33.341V19.2423C33.341 19.4581 33.3988 19.6219 33.5143 19.7336C33.6298 19.8435 33.7879 19.8984 33.9886 19.8984C34.0946 19.8984 34.1922 19.8775 34.2811 19.8359C34.372 19.7923 34.4449 19.7317 34.4998 19.6541V19.8813ZM36.6974 19.8813V17.7739H36.4248V18.6032C36.3642 18.5237 36.2885 18.4641 36.1976 18.4243C36.1067 18.3827 36.0073 18.3618 35.8994 18.3618C35.7536 18.3618 35.6229 18.394 35.5074 18.4584C35.3919 18.5228 35.301 18.6127 35.2348 18.7282C35.1704 18.8437 35.1382 18.9772 35.1382 19.1287C35.1382 19.2802 35.1704 19.4146 35.2348 19.532C35.301 19.6475 35.3919 19.7374 35.5074 19.8018C35.6229 19.8662 35.7536 19.8984 35.8994 19.8984C36.0111 19.8984 36.1133 19.8766 36.2061 19.833C36.2989 19.7895 36.3756 19.7261 36.4362 19.6428V19.8813H36.6974ZM36.1805 19.5945C36.1029 19.638 36.0168 19.6598 35.9221 19.6598C35.8255 19.6598 35.7384 19.638 35.6608 19.5945C35.585 19.549 35.5245 19.4865 35.479 19.407C35.4355 19.3256 35.4137 19.2328 35.4137 19.1287C35.4137 19.0245 35.4355 18.9327 35.479 18.8532C35.5245 18.7718 35.585 18.7093 35.6608 18.6657C35.7384 18.6222 35.8255 18.6004 35.9221 18.6004C36.0168 18.6004 36.1029 18.6222 36.1805 18.6657C36.2582 18.7093 36.3188 18.7718 36.3623 18.8532C36.4059 18.9327 36.4276 19.0245 36.4276 19.1287C36.4276 19.2328 36.4059 19.3256 36.3623 19.407C36.3188 19.4865 36.2582 19.549 36.1805 19.5945ZM37.2162 18.0352C37.2522 18.0693 37.2967 18.0863 37.3497 18.0863C37.4027 18.0863 37.4462 18.0693 37.4803 18.0352C37.5163 17.9992 37.5343 17.9557 37.5343 17.9046C37.5343 17.8553 37.5163 17.8146 37.4803 17.7824C37.4462 17.7484 37.4027 17.7313 37.3497 17.7313C37.2967 17.7313 37.2522 17.7493 37.2162 17.7853C37.1821 17.8194 37.1651 17.861 37.1651 17.9102C37.1651 17.9595 37.1821 18.0011 37.2162 18.0352ZM38.248 19.799C38.3673 19.8652 38.5017 19.8984 38.6513 19.8984C38.8009 19.8984 38.9344 19.8652 39.0518 19.799C39.1711 19.7327 39.2639 19.6418 39.3301 19.5263C39.3983 19.4089 39.4324 19.2764 39.4324 19.1287C39.4324 18.981 39.3983 18.8494 39.3301 18.7339C39.2639 18.6165 39.1711 18.5256 39.0518 18.4612C38.9344 18.395 38.8009 18.3618 38.6513 18.3618C38.5017 18.3618 38.3673 18.395 38.248 18.4612C38.1287 18.5256 38.035 18.6165 37.9668 18.7339C37.9006 18.8494 37.8674 18.981 37.8674 19.1287C37.8674 19.2764 37.9006 19.4089 37.9668 19.5263C38.035 19.6418 38.1287 19.7327 38.248 19.799ZM38.9098 19.5945C38.834 19.638 38.7479 19.6598 38.6513 19.6598C38.5548 19.6598 38.4677 19.638 38.39 19.5945C38.3143 19.549 38.2537 19.4865 38.2083 19.407C38.1647 19.3256 38.1429 19.2328 38.1429 19.1287C38.1429 19.0245 38.1647 18.9327 38.2083 18.8532C38.2537 18.7718 38.3143 18.7093 38.39 18.6657C38.4677 18.6222 38.5548 18.6004 38.6513 18.6004C38.7479 18.6004 38.834 18.6222 38.9098 18.6657C38.9874 18.7093 39.048 18.7718 39.0915 18.8532C39.1351 18.9327 39.1569 19.0245 39.1569 19.1287C39.1569 19.2328 39.1351 19.3256 39.0915 19.407C39.048 19.4865 38.9874 19.549 38.9098 19.5945ZM46.591 19.1538H40.0586V18.8698H46.591V19.1538ZM16.2009 19.1538H22.7334V18.8698H16.2009V19.1538ZM37.486 18.376H37.2133V19.8813H37.486V18.376Z" fill="#E0E0E0"/>
</svg>
