<svg width="175" height="37" viewBox="0 0 175 37" fill="none" xmlns="http://www.w3.org/2000/svg">
<path d="M17.4371 14.3885C17.4371 16.6798 17.4371 18.9712 17.4371 21.2659C17.4371 21.466 17.4404 21.6662 17.4638 21.8629C17.5071 22.1898 17.6972 22.3966 18.0341 22.4299C18.3776 22.4633 18.7245 22.4766 19.068 22.5033C19.6351 22.5467 19.8052 22.7001 19.8185 23.2704C19.8385 24.3077 19.8318 25.3484 19.8318 26.389C19.8352 27.7998 19.8385 29.214 19.8418 30.6248C19.8418 31.4186 19.6584 31.5821 18.8746 31.5621C18.2376 31.5454 17.5972 31.5954 16.9635 31.5621C16.4298 31.532 16.3197 31.3953 16.3131 30.8616C16.3031 29.5709 16.2997 28.2768 16.3197 26.986C16.3331 26.0855 16.123 25.8486 15.2091 25.8486C11.7837 25.8486 8.35832 25.8486 4.93294 25.8486C4.00906 25.8486 3.83229 26.0254 3.83229 26.9393C3.83562 28.1667 3.83896 29.3908 3.84229 30.6182C3.84563 31.412 3.55212 31.6554 2.75831 31.5987C2.09458 31.5521 1.42752 31.5621 0.760454 31.5521C0.130077 31.542 0.00333476 31.422 0.00333476 30.8083C0.00333476 28.3034 0.00667065 25.7986 0 23.2938C0 22.7168 0.143419 22.3399 0.820489 22.4399C1.26742 22.5033 1.48755 22.1531 1.64432 21.8062C2.33139 20.292 3.04515 18.7911 3.67219 17.2502C4.78953 14.5019 5.55999 11.6568 5.87684 8.69841C5.93021 8.20812 5.96022 7.71783 5.98691 7.22753C6.0236 6.5638 6.23372 6.35034 6.90079 6.35034C8.89864 6.35034 10.8998 6.36035 12.8977 6.36368C14.0584 6.36368 15.2157 6.35368 16.3764 6.35034C17.247 6.35034 17.4404 6.53712 17.4404 7.39763C17.4404 9.72903 17.4404 12.0604 17.4404 14.3951C17.4437 14.3885 17.4404 14.3885 17.4371 14.3885ZM13.7415 15.9828C13.7415 14.2117 13.7415 12.4406 13.7415 10.6696C13.7415 10.5095 13.7349 10.3494 13.7115 10.1926C13.6281 9.69234 13.4447 9.53891 12.9311 9.53891C12.1439 9.53891 11.3601 9.54892 10.573 9.54225C9.67578 9.53224 9.38227 9.76238 9.19215 10.6296C8.40502 14.1984 7.43444 17.7138 6.07029 21.1158C5.62002 22.2398 5.79012 22.4866 7.00084 22.49C8.81193 22.4966 10.623 22.5 12.4374 22.5C12.6509 22.5 12.8643 22.4933 13.0745 22.47C13.4314 22.4266 13.6615 22.2398 13.6915 21.8563C13.7082 21.6561 13.7382 21.4594 13.7382 21.2592C13.7449 19.5015 13.7415 17.7405 13.7415 15.9828Z" fill="#1E7CC1"/>
<path d="M57.5744 16.8702C57.5411 15.3626 57.7378 13.785 58.2081 12.2441C59.1387 9.18562 61.2466 7.3612 64.2651 6.50068C65.6092 6.11712 66.98 5.97037 68.3742 6.02707C69.0413 6.05375 69.6216 5.8603 70.1586 5.46006C70.9591 4.86304 71.5294 5.10986 71.6895 6.11045C71.7495 6.48734 71.8129 6.87758 71.7862 7.25447C71.6862 8.56191 71.0191 9.13559 69.6916 9.22231C68.2608 9.31903 66.8299 9.43911 65.4091 9.63255C64.5652 9.74929 63.7648 10.0661 63.091 10.6332C62.0738 11.4903 61.7569 12.6143 61.8436 13.8884C61.847 13.9285 62.0137 14.0085 62.0437 13.9852C62.3239 13.785 62.6007 13.5716 62.8642 13.3514C66.3763 10.4064 71.2059 12.8211 71.9463 16.4633C72.5 19.1749 72.1431 21.6797 70.2486 23.831C69.3314 24.8717 68.1941 25.5387 66.8166 25.6888C65.776 25.8022 64.7187 25.8456 63.6714 25.8155C61.7569 25.7588 60.4028 24.7116 59.2988 23.2307C58.0213 21.5197 57.5577 19.5818 57.5744 17.4906C57.5777 17.3205 57.5744 17.147 57.5744 16.8702ZM68.2641 18.8514C68.2474 18.8514 68.2308 18.8514 68.2141 18.8481C68.2208 18.7146 68.2308 18.5812 68.2341 18.4512C68.2474 17.7307 68.2241 17.0136 67.8672 16.3566C66.9934 14.7489 64.7353 14.3287 63.1377 15.4827C61.7836 16.46 61.1699 18.2644 61.6168 19.9654C62.0504 21.6197 63.2678 22.6236 65.0589 22.8104C66.8633 22.9972 67.9439 22.16 68.1774 20.3656C68.2408 19.862 68.2374 19.355 68.2641 18.8514Z" fill="#1B7EC2"/>
<path d="M127.67 18.808C127.67 16.6633 127.67 14.5187 127.67 12.3741C127.67 12.2674 127.653 12.164 127.643 12.0573C127.56 11.2635 127.903 10.8632 128.7 10.8799C129.511 10.8999 130.325 10.9466 131.135 11C131.639 11.0333 131.806 11.2568 131.809 11.8438C131.826 14.4554 131.836 17.0669 131.852 19.6751C131.852 19.8419 131.919 20.0087 131.952 20.1754C132.082 20.0587 132.242 19.9586 132.339 19.8186C134.117 17.2437 135.875 14.6588 137.669 12.094C138.289 11.2101 139.183 10.8432 140.277 10.9633C140.884 11.03 141.498 11.05 142.108 11.0767C142.879 11.11 143.046 11.2935 143.049 12.0806C143.049 13.3047 143.049 14.5287 143.069 15.7528C143.109 18.4411 143.166 21.1293 143.206 23.821C143.212 24.2712 143.189 24.7248 143.162 25.1784C143.132 25.7388 142.859 26.0023 142.302 26.0123C141.531 26.0223 140.761 26.0256 139.987 26.0223C139.467 26.0189 139.233 25.7554 139.23 25.1618C139.223 23.9744 139.227 22.7903 139.227 21.603C139.227 20.0187 139.23 18.4311 139.223 16.8468C139.223 16.7301 139.157 16.6167 139.123 16.4999C139.04 16.5766 138.936 16.6367 138.873 16.7267C136.989 19.5017 135.101 22.2734 133.236 25.065C132.779 25.7521 132.222 26.0923 131.375 26.0423C130.431 25.9889 129.484 26.0289 128.537 26.0289C127.786 26.0289 127.69 25.9356 127.69 25.1718C127.686 23.0538 127.69 20.9326 127.69 18.8146C127.686 18.808 127.676 18.808 127.67 18.808Z" fill="#1C7EC2"/>
<path d="M75.5391 21.8662C75.5391 18.6142 75.5391 15.3623 75.5391 12.1103C75.5391 11.2665 75.6992 11.1231 76.5497 11.1364C77.2167 11.1464 77.8805 11.1331 78.5475 11.1364C79.0445 11.1398 79.2146 11.3165 79.2113 11.8168C79.2079 12.3238 79.1979 12.8308 79.1946 13.3344C79.1946 13.4211 79.2246 13.5112 79.2413 13.5979C79.3313 13.5545 79.4314 13.5245 79.5048 13.4645C79.9017 13.1309 80.2852 12.7774 80.6855 12.4472C83.4705 10.1592 86.9492 10.8829 88.5268 14.1182C89.8343 16.8031 90.0677 19.5614 88.7503 22.3198C88.0199 23.844 86.9759 25.1148 85.3082 25.7018C83.3537 26.3889 80.9256 25.5884 79.7116 23.904C79.6415 23.8073 79.4848 23.7706 79.3714 23.7073C79.3113 23.8407 79.2013 23.9741 79.2013 24.1042C79.1946 26.609 79.2046 29.1138 79.2079 31.622C79.2079 32.4625 79.0312 32.6192 78.1906 32.5892C77.647 32.5692 77.1033 32.5659 76.5597 32.5859C75.7025 32.6126 75.5424 32.4725 75.5424 31.6286C75.5391 28.37 75.5391 25.1181 75.5391 21.8662ZM82.72 14.3317C82.4799 14.3317 82.2397 14.325 81.9996 14.3317C80.9423 14.365 79.825 15.1988 79.7316 16.1861C79.6148 17.4502 79.5548 18.7376 79.6382 20.0017C79.7116 21.1257 80.2252 22.113 81.4326 22.4398C81.9562 22.5799 82.5399 22.5632 83.0936 22.5332C84.0175 22.4832 84.6478 21.9762 85.0081 21.1257C85.6584 19.5948 85.6484 18.0139 85.3116 16.4229C84.9013 14.4817 84.1642 14.2716 82.72 14.3317Z" fill="#1B7EC2"/>
<path d="M92.0485 18.5909C92.0385 16.7798 92.4421 15.1021 93.5694 13.6479C95.167 11.5834 97.3317 10.933 99.8398 11.1831C100.514 11.2498 101.194 11.3366 101.844 11.5067C103.876 12.0336 105.273 13.2911 105.93 15.2923C106.941 18.3774 106.754 21.2992 104.639 23.9207C103.402 25.4517 101.768 26.052 99.8332 25.9219C98.936 25.8619 98.0188 25.8752 97.1449 25.6885C94.3566 25.0848 92.4754 22.9368 92.1619 20.1051C92.1052 19.6015 92.0852 19.0945 92.0485 18.5909ZM96.2777 18.771C96.2777 19.1212 96.2777 19.4147 96.2777 19.7082C96.281 21.5026 97.0815 22.4332 98.8593 22.71C100.53 22.9702 101.684 22.2764 102.245 20.6821C102.768 19.1979 102.638 17.7137 102.195 16.2495C101.811 14.9721 100.82 14.2316 99.5263 14.1482C98.4023 14.0782 97.2783 14.7653 96.7313 15.8659C96.2677 16.8032 96.2344 17.8104 96.2777 18.771Z" fill="#1E7DC1"/>
<path d="M123.697 18.4543C123.697 20.6523 123.697 22.8503 123.697 25.0516C123.697 25.8621 123.51 26.0422 122.713 26.0355C121.859 26.0288 121.009 26.0288 120.155 26.0355C119.544 26.0389 119.314 25.8087 119.314 25.1917C119.314 23.9143 119.308 22.6368 119.311 21.3594C119.311 21.1059 119.358 20.8524 119.341 20.6023C119.311 20.1086 119.157 20.0353 118.694 20.2154C117.99 20.4922 117.293 20.8157 116.566 21.0025C114.601 21.5028 112.704 21.296 110.939 20.2587C109.929 19.665 109.438 18.7345 109.372 17.5838C109.335 16.9334 109.355 16.2797 109.348 15.626C109.335 14.3619 109.322 13.0945 109.305 11.8304C109.298 11.1466 109.468 10.9732 110.139 10.9732C110.979 10.9765 111.82 10.9765 112.657 10.9732C113.297 10.9699 113.457 11.1266 113.454 11.777C113.451 13.3613 113.441 14.9489 113.441 16.5332C113.441 17.7639 113.724 18.0908 114.925 18.3709C116.352 18.7011 117.64 18.2609 118.891 17.6605C119.408 17.4137 119.348 16.86 119.344 16.3831C119.324 14.8922 119.294 13.4013 119.267 11.9104C119.264 11.777 119.274 11.6436 119.277 11.5102C119.291 11.19 119.464 11.0065 119.774 10.9999C120.908 10.9832 122.039 10.9799 123.173 10.9832C123.523 10.9832 123.66 11.2334 123.677 11.5402C123.697 11.8704 123.68 12.2039 123.68 12.5375C123.68 14.5086 123.68 16.4831 123.68 18.4543C123.687 18.4543 123.69 18.4543 123.697 18.4543Z" fill="#1C7EC2"/>
<path d="M146.578 18.7912C146.571 17.307 146.838 15.8828 147.522 14.5487C148.636 12.3707 150.52 11.3067 152.845 10.9098C154.256 10.6697 155.623 10.8264 156.931 11.4702C157.191 11.5969 157.521 11.6036 157.825 11.6169C158.512 11.6469 158.778 11.9538 158.692 12.6409C158.588 13.4513 158.288 14.1818 157.868 14.8689C157.441 15.5659 157.087 15.6527 156.447 15.139C154.95 13.9383 153.269 14.1985 152.238 14.9989C151.331 15.6993 150.907 16.6799 150.767 17.7839C150.65 18.7178 150.744 19.645 151.067 20.5389C151.357 21.336 151.888 21.9064 152.695 22.1832C153.709 22.5301 154.759 22.6468 155.803 22.4167C156.294 22.31 156.761 22.0365 157.204 21.783C157.694 21.5028 158.078 21.5695 158.121 22.1032C158.198 23.0637 158.171 24.0377 158.135 25.0016C158.128 25.1717 157.888 25.4518 157.721 25.4785C155.793 25.782 153.912 26.5091 151.898 25.9788C148.789 25.1617 146.688 22.6001 146.585 19.3916C146.571 19.1914 146.578 18.9913 146.578 18.7912Z" fill="#1B7EC2"/>
<path d="M167.143 10.9731C169.167 10.9731 171.195 10.9731 173.22 10.9731C173.93 10.9731 174.14 11.23 174.084 11.927C174.044 12.4307 174.047 12.9376 174.064 13.4413C174.084 14.0083 173.94 14.1917 173.363 14.1917C172.282 14.1951 171.205 14.1784 170.125 14.1917C169.311 14.1984 169.167 14.3518 169.174 15.1556C169.191 18.4309 169.217 21.7096 169.234 24.9848C169.241 25.9821 169.194 26.0188 168.203 26.0221C167.416 26.0221 166.632 26.0255 165.845 26.0321C165.195 26.0355 164.985 25.8387 164.985 25.175C164.985 22.8702 164.988 20.5655 164.998 18.2608C165.001 17.1969 165.021 16.1296 165.035 15.0656C165.045 14.4352 164.811 14.1851 164.178 14.1851C163.084 14.1851 161.993 14.1917 160.899 14.1917C160.342 14.1917 160.189 14.0316 160.192 13.478C160.195 12.921 160.202 12.364 160.192 11.807C160.182 11.1099 160.312 10.9731 161.026 10.9731C163.064 10.9731 165.105 10.9731 167.143 10.9731Z" fill="#1B7EC2"/>
<path d="M55.9101 18.3444C55.3198 17.5472 54.7694 16.7167 54.1324 15.9596C52.9851 14.5921 51.4141 13.8383 49.7698 13.328C48.1855 12.8344 46.5445 12.5109 44.9169 12.1874C42.2153 11.6504 39.5537 10.9933 37.0088 9.92601C36.9855 9.916 36.9722 9.89266 36.9521 9.87265C37.229 9.74924 37.5592 9.68253 37.7526 9.48241C37.8427 9.38902 37.7193 9.01547 37.6059 8.81535C37.4958 8.61856 37.2757 8.48515 37.1056 8.32506C37.299 8.20165 37.4925 8.07824 37.6859 7.95483C41.3148 8.83202 44.9436 9.70254 48.5691 10.5864C50.8571 11.1434 52.8049 12.2807 54.3992 14.0251C55.3365 15.0524 56.1736 16.1297 56.5072 17.5139C56.5472 17.6806 56.5772 17.8474 56.6139 18.0175C56.3771 18.1276 56.1436 18.2376 55.9101 18.3444Z" fill="#00B5E8"/>
<path d="M48.1623 24.4211C49.8966 25.0781 51.1907 26.2055 51.9145 27.9398C51.7511 28.1099 51.561 28.2634 51.4342 28.4568C51.2241 28.7803 50.9806 28.9604 50.5837 28.8404C50.4069 28.787 50.2302 28.7003 50.0501 28.7003C49.8466 28.6969 49.6431 28.7737 49.4397 28.817C47.672 26.8525 45.3239 25.8919 42.9091 25.0548C42.2687 24.8313 41.6083 24.6712 40.9613 24.4644C40.7378 24.3944 40.531 24.2743 40.3176 24.1776C40.3743 24.1509 40.431 24.1142 40.4944 24.1009C40.8879 23.9975 40.8379 23.6906 40.7645 23.4271C40.6745 23.1036 40.451 23.1503 40.1975 23.277C39.7206 23.5138 39.5871 23.4205 39.5138 22.8768C39.5004 22.7867 39.427 22.7034 39.3837 22.6166C39.3303 22.6667 39.2636 22.7134 39.2269 22.7734C38.8867 23.3137 38.7867 23.3304 38.2063 23.0536C37.9028 22.9068 37.9762 22.8101 38.1963 22.6867C38.5198 22.5032 38.7133 22.2331 38.7566 21.8662C38.7667 21.7828 38.7566 21.6961 38.7566 21.6127C38.7033 21.6661 38.6499 21.7161 38.5999 21.7728C38.0729 22.4132 37.716 22.4332 37.1257 21.8262C36.9122 21.606 36.7188 21.496 36.3919 21.6027C36.0717 21.7061 35.8883 21.4926 35.9283 21.1591C35.9616 20.8823 35.9783 20.6054 36.0017 20.3286C37.0456 20.382 38.0129 20.7188 38.9601 21.1391C39.2736 21.546 39.5771 21.9596 39.904 22.3532C39.9774 22.4399 40.1275 22.4932 40.2475 22.5032C41.078 22.5666 41.078 22.57 41.2982 23.3838C41.3282 23.4972 41.4449 23.5906 41.5183 23.6906C41.5983 23.6172 41.6684 23.5239 41.7618 23.4738C41.8785 23.4105 42.0753 23.3004 42.132 23.3437C42.9158 23.9641 43.8063 24.1642 44.7836 24.1175C45.0204 24.1075 45.2705 24.1943 45.4973 24.2876C45.8075 24.4144 46.041 24.351 46.1377 24.0608C46.1677 23.9675 46.1911 23.8741 46.2178 23.7773C46.2678 23.8641 46.3212 23.9474 46.3645 24.0375C46.7548 24.8246 47.652 25.0181 48.1623 24.4211Z" fill="#2D76BA"/>
<path d="M26.2357 23.9475C29.1541 24.9548 32.2226 25.3183 35.2043 26.0421C35.9681 26.2255 36.7286 26.4156 37.479 26.6391C37.7725 26.7258 38.036 26.9193 38.3162 27.066C38.3429 27.0894 38.3662 27.1161 38.3929 27.1394L38.3962 27.1428C38.3996 27.2895 38.3429 27.4896 38.4163 27.573C38.6664 27.8565 38.9399 28.1367 39.2501 28.3501C39.8104 28.7337 39.9005 29.0005 39.5769 29.6309C38.7831 29.3774 37.996 29.0973 37.1922 28.8771C35.0309 28.2768 32.8529 27.7364 30.7016 27.1061C29.2775 26.6891 27.8833 26.1655 26.4858 25.6685C26.219 25.5718 25.9855 25.3784 25.7354 25.2316C26.0489 25.1616 26.1323 24.9314 26.1556 24.6479C26.1756 24.4145 26.209 24.181 26.2357 23.9475Z" fill="#3E5280"/>
<path d="M39.203 14.3315C39.5499 14.4083 39.9001 14.4816 40.247 14.5583C40.297 14.8952 40.4537 15.102 40.824 15.1587C41.0775 15.1987 41.3776 15.2854 41.1775 15.6857C41.1241 15.7957 41.0908 16.0192 41.1442 16.0626C41.2776 16.1626 41.4677 16.226 41.6378 16.2327C41.8012 16.2393 41.968 16.1526 42.1381 16.1093C42.6951 15.9759 42.9419 16.1159 43.1053 16.6663C43.1387 16.7797 43.142 16.9097 43.1987 17.0098C43.2788 17.1466 43.3988 17.26 43.5022 17.38C43.6223 17.26 43.7457 17.1432 43.8591 17.0165C43.9558 16.9064 44.0626 16.6763 44.1293 16.6863C44.5028 16.753 44.8931 16.8264 45.2133 17.0065C45.3433 17.0798 45.34 17.4334 45.35 17.6602C45.3633 18.0071 45.5068 18.0671 45.8136 17.9637C45.9971 17.9037 46.2239 17.8303 46.3906 17.887C46.7242 17.9971 46.8442 17.8703 46.9443 17.5868C46.991 17.4534 47.1344 17.25 47.2245 17.2566C47.3645 17.2666 47.528 17.3967 47.6214 17.5234C47.8582 17.8403 48.0549 18.1838 48.4752 17.7336C48.5086 17.6969 48.6019 17.7069 48.6653 17.7036C49.1823 17.6869 49.6025 17.8236 49.816 18.3639C49.8727 18.5074 50.0395 18.7242 50.1262 18.7108C50.2696 18.6908 50.3863 18.5007 50.5298 18.4006C50.6899 18.2906 50.8633 18.2005 51.0334 18.1005C51.1968 18.2072 51.3569 18.3106 51.5204 18.4173C51.5704 18.8676 51.3036 19.1211 50.97 19.3579C50.86 19.4346 50.8299 19.628 50.7632 19.7681C50.9033 19.7648 51.0467 19.7581 51.1868 19.7615C51.2802 19.7648 51.4136 19.7481 51.4603 19.8015C51.7305 20.1217 51.447 20.8288 51.0301 20.9021C50.1095 20.4719 49.1823 20.055 48.2684 19.6114C46.6441 18.8242 44.8864 18.5107 43.1554 18.0871C42.535 17.9337 41.9346 17.6869 41.3276 17.4801C41.4677 17.0632 41.0808 17.1065 40.9107 17.0832C40.5638 17.0332 40.4104 16.9031 40.3604 16.5429C40.2636 15.8491 39.9935 15.4822 39.2363 15.8324C39.1696 15.8625 39.0496 15.8858 39.0095 15.8491C38.9295 15.7791 38.8228 15.649 38.8428 15.5723C38.9462 15.1554 39.0796 14.7451 39.203 14.3315Z" fill="#009DD8"/>
<path d="M24.3241 15.7764C26.342 17.3573 28.7501 18.0978 31.1182 18.9249C31.4417 19.0383 31.7619 19.1717 32.0821 19.2951C31.9487 19.3652 31.7852 19.4052 31.6852 19.5086C31.5751 19.6253 31.4384 19.8221 31.4717 19.9389C31.5418 20.2023 31.7185 20.0556 31.8753 19.9689C32.2222 19.7688 32.3289 19.8288 32.3122 20.2257C32.2956 20.6293 32.3689 20.9828 32.6491 21.2963C32.7291 21.3864 32.7125 21.5632 32.7392 21.6966C32.6157 21.7066 32.4923 21.7233 32.3689 21.7233C32.2489 21.7233 32.1321 21.7032 32.012 21.6932C29.4905 21.0929 27.1025 20.159 24.9078 18.7682C24.611 18.5814 24.3575 18.3212 24.084 18.0978C24.6643 18.2545 24.7844 18.1578 24.7977 17.5408C24.8011 17.3606 24.8811 17.1839 24.8778 17.0038C24.8745 16.8804 24.8111 16.6669 24.7377 16.6469C24.2207 16.5268 24.1774 16.2033 24.3241 15.7764Z" fill="#3E5380"/>
<path d="M38.2465 34.8038C36.4121 33.3896 34.3275 32.4857 32.1195 31.8387C31.7793 31.7386 31.4491 31.5885 31.1156 31.4618C31.2223 31.1283 31.3391 30.7947 31.4291 30.4545C31.4424 30.4078 31.3157 30.2678 31.289 30.2744C30.8454 30.4178 30.6086 30.0876 30.3218 29.8708C32.9033 30.1477 35.2781 31.0382 37.5227 32.309C38.7235 32.9894 39.9575 33.6331 40.8681 34.7204C40.9348 34.8005 40.9915 34.8872 41.0515 34.9739C40.5912 34.6404 40.1343 34.3035 39.674 33.97C39.654 33.9533 39.634 33.9199 39.614 33.9199C39.3872 33.9199 39.1304 33.8632 38.9403 33.9499C38.6968 34.0567 38.8402 34.2435 38.9603 34.4036C38.9736 34.4236 38.8369 34.597 38.7435 34.6437C38.5867 34.7237 38.4133 34.7538 38.2465 34.8038Z" fill="#3A4F78"/>
<path d="M41.8079 0C42.6584 0.0433592 43.2487 0.373557 43.7557 1.0573C44.5629 2.14795 45.7703 2.64158 47.081 2.82169C48.9488 3.07517 50.4597 3.93568 51.6738 5.34986C51.7438 5.43324 51.7705 5.55332 51.8172 5.65338C51.7271 5.61669 51.6304 5.59 51.547 5.54331C50.3563 4.88959 49.0522 4.59941 47.7381 4.34259C46.2806 4.05575 44.8264 3.77559 43.5222 2.99846C42.605 2.45146 41.938 1.671 41.391 0.780466C41.3109 0.650388 41.2976 0.400239 41.371 0.270162C41.4377 0.136749 41.6545 0.0833831 41.8079 0Z" fill="#00A3D3"/>
<path d="M48.4827 8.00484C46.3181 7.5946 44.1868 7.06428 42.1323 6.25713C41.2184 5.89692 40.3312 5.46999 39.4307 5.07309C39.8743 5.10978 40.2178 4.96636 40.3846 4.5261C40.4746 4.28929 40.5547 4.05248 40.6414 3.81567C42.1923 4.43271 43.7299 5.08977 45.3008 5.65344C45.9879 5.90025 46.7417 5.95028 47.4588 6.11705C47.8624 6.21044 48.2526 6.36386 48.6495 6.4906C48.6762 6.65737 48.7396 6.82747 48.7162 6.98423C48.6595 7.32777 48.5628 7.66464 48.4827 8.00484Z" fill="#00B4EA"/>
<path d="M51.0374 18.1007C50.8706 18.2008 50.6939 18.2875 50.5338 18.4009C50.3904 18.5009 50.277 18.6911 50.1302 18.7111C50.0402 18.7244 49.8734 18.5076 49.82 18.3642C49.6099 17.8239 49.1896 17.6871 48.6693 17.7038C48.6026 17.7071 48.5126 17.6971 48.4792 17.7338C48.059 18.1874 47.8622 17.8439 47.6254 17.5237C47.532 17.397 47.3686 17.2635 47.2285 17.2569C47.1384 17.2502 46.995 17.4537 46.9483 17.5871C46.8482 17.8739 46.7282 18.0006 46.3946 17.8872C46.2279 17.8305 46.0011 17.9039 45.8176 17.964C45.5108 18.0674 45.3674 18.0073 45.354 17.6604C45.344 17.4336 45.3474 17.0801 45.2173 17.0067C44.8971 16.8266 44.5035 16.7532 44.1333 16.6865C44.0666 16.6732 43.9599 16.9067 43.8631 17.0167C43.7497 17.1435 43.6263 17.2602 43.5063 17.3803C43.4029 17.2569 43.2828 17.1435 43.2027 17.0101C43.1427 16.9133 43.1427 16.7799 43.1093 16.6665C42.9459 16.1162 42.6991 15.9728 42.1421 16.1095C41.9753 16.1495 41.8086 16.2363 41.6418 16.2329C41.4717 16.2263 41.2816 16.1629 41.1482 16.0628C41.0948 16.0228 41.1282 15.7993 41.1815 15.6859C41.3783 15.2857 41.0815 15.199 40.828 15.159C40.4578 15.1023 40.301 14.8955 40.251 14.5586C43.9432 15.159 47.5287 16.0928 50.8173 17.9473C50.894 17.9906 50.964 18.0507 51.0374 18.1007Z" fill="#00AFE6"/>
<path d="M27.1961 9.71899C27.9999 10.2026 28.807 10.6796 29.6075 11.1699C30.0111 11.4167 30.4046 11.6868 30.8016 11.947C30.8816 12.2038 30.9616 12.464 31.0384 12.7208C31.1484 13.091 31.2585 13.4646 31.3719 13.8348C31.4353 14.0416 31.5086 14.245 31.5753 14.4518C31.3619 14.5219 31.1484 14.5952 30.9316 14.6619C30.8816 14.6786 30.8282 14.672 30.7749 14.6753C29.294 14.3184 27.9799 13.6313 26.8125 12.6608C26.8358 12.6007 26.8692 12.544 26.8792 12.4806C26.9926 11.7702 27.1093 11.0598 27.2094 10.346C27.2328 10.1392 27.1994 9.92578 27.1961 9.71899Z" fill="#3F5483"/>
<path d="M27.1961 9.71919C27.1995 9.92931 27.2328 10.1394 27.2061 10.3462C27.1094 11.06 26.9893 11.7704 26.8759 12.4808C26.8659 12.5409 26.8326 12.6009 26.8092 12.6609C24.0776 11.3635 23.3938 7.91478 25.3917 5.49333C25.5351 5.31989 25.6886 5.15313 25.8453 4.9897C25.8987 4.93633 25.9721 4.90298 26.0354 4.85962C26.0321 4.93633 26.0354 5.01304 26.0187 5.08642C25.7853 6.12371 25.7719 7.15766 26.2189 8.13491C26.479 8.69524 26.8659 9.19221 27.1961 9.71919Z" fill="#354762"/>
<path d="M30.3216 29.8746C30.6084 30.0914 30.8452 30.4216 31.2888 30.2782C31.3155 30.2682 31.4389 30.4116 31.4289 30.4583C31.3388 30.7985 31.2221 31.132 31.1154 31.4656C28.6139 31.0086 26.2091 30.2982 24.1812 28.6706C23.174 27.8634 22.3201 26.9295 21.8198 25.7188C21.8532 25.6854 21.8865 25.6521 21.9232 25.6221C23.8143 27.8401 26.2892 28.9974 29.0908 29.5578C29.5044 29.6378 29.9113 29.7679 30.3216 29.8746Z" fill="#2E4259"/>
<path d="M37.6823 7.95836C37.4889 8.08177 37.2954 8.20518 37.102 8.32858C37.2721 8.48868 37.4922 8.62209 37.6023 8.81888C37.7157 9.01899 37.8391 9.39255 37.7491 9.48594C37.5523 9.68606 37.2221 9.7561 36.9486 9.87617C35.5944 9.43925 34.307 8.86224 33.1196 8.07176C33.0696 7.48475 32.9962 6.89773 32.9729 6.30738C32.9629 6.0172 32.8094 5.66366 33.1863 5.46021C34.5338 6.21065 35.8813 6.95776 37.2321 7.70821C37.3855 7.78826 37.5323 7.87498 37.6823 7.95836Z" fill="#0292C8"/>
<path d="M36.0047 20.322C35.9813 20.5989 35.9647 20.8757 35.9313 21.1525C35.8913 21.4861 36.0747 21.7029 36.3949 21.5961C36.7218 21.4894 36.9152 21.5995 37.1287 21.8196C37.719 22.4266 38.0759 22.4066 38.6029 21.7662C38.6496 21.7095 38.7063 21.6595 38.7597 21.6061C38.7597 21.6895 38.7697 21.7762 38.7597 21.8596C38.7163 22.2298 38.5229 22.5 38.1993 22.6801C37.9759 22.8069 37.9025 22.9036 38.2093 23.047C38.7897 23.3238 38.8864 23.3105 39.2299 22.7668C39.27 22.7068 39.3333 22.6634 39.3867 22.6101C39.4334 22.6968 39.5068 22.7768 39.5168 22.8702C39.5902 23.4139 39.7236 23.5073 40.2005 23.2705C40.454 23.1437 40.6775 23.097 40.7675 23.4206C40.8409 23.6841 40.8909 23.9909 40.4974 24.0943C40.4373 24.111 40.3806 24.1443 40.3206 24.171C39.2066 23.8675 38.0859 23.584 36.9786 23.2505C36.0747 22.9803 35.1909 22.6501 34.3003 22.3432C34.3504 22.1932 34.4438 22.0397 34.4438 21.8896C34.4404 21.6829 34.327 21.4794 34.3304 21.2726C34.337 20.9958 34.3537 20.7857 33.9735 20.9357C33.9234 20.9558 33.7834 20.8957 33.7834 20.8757C33.8034 20.302 33.3631 19.9585 33.1196 19.5149C34.0835 19.7917 35.0441 20.0586 36.0047 20.322Z" fill="#3B6CAF"/>
<path d="M39.5803 29.631C39.9038 29.0006 39.8138 28.7338 39.2535 28.3502C38.9433 28.1367 38.6698 27.8566 38.4196 27.5731C38.3462 27.4897 38.4029 27.2896 38.3996 27.1428C40.7877 27.7732 42.9757 28.8038 44.9035 30.3547C44.9535 30.3948 44.9935 30.4515 45.0369 30.5015C44.7034 30.4848 44.5333 30.6382 44.4699 30.9718C44.4432 31.1152 44.2998 31.2353 44.2097 31.3687C44.1063 31.2486 43.9963 31.1319 43.8962 31.0051C43.7428 30.815 43.6361 30.5582 43.4393 30.4415C43.2759 30.3447 43.0057 30.3614 42.8089 30.4181C42.7422 30.4381 42.7389 30.7216 42.7222 30.8884C42.7088 31.0185 42.7222 31.1519 42.7255 31.2853C41.6749 30.735 40.6276 30.1846 39.5803 29.631Z" fill="#425B93"/>
<path d="M24.3246 15.7763C24.1779 16.2033 24.2212 16.5268 24.7415 16.6535C24.8149 16.6702 24.8783 16.8837 24.8816 17.0104C24.885 17.1872 24.8049 17.3673 24.8016 17.5474C24.7882 18.1644 24.6682 18.2612 24.0878 18.1044C21.5963 16.3434 20.8225 13.3849 22.0733 10.5199C22.1 10.4598 22.14 10.4098 22.1767 10.3564C22.1934 10.4232 22.2267 10.4932 22.2267 10.5599C22.2067 12.1175 22.6269 13.5283 23.6275 14.7491C23.8543 15.0259 24.0378 15.3361 24.2412 15.6329C24.2679 15.6763 24.2979 15.7263 24.3246 15.7763Z" fill="#2E4259"/>
<path d="M48.4819 8.0052C48.562 7.665 48.6587 7.32813 48.7121 6.98459C48.7354 6.82783 48.6687 6.6544 48.6454 6.49097C51.2669 6.86119 53.3982 8.01521 54.7057 10.4C55.0325 10.9937 55.1959 11.6774 55.4261 12.3211C55.4461 12.3811 55.4127 12.4612 55.4061 12.5312C55.366 12.4812 55.3227 12.4345 55.2827 12.3845C54.9258 11.9209 54.5756 11.4573 54.2154 10.997C53.1781 9.66953 51.7272 9.03915 50.1629 8.58555C49.5959 8.41545 49.0423 8.19865 48.4819 8.0052Z" fill="#00AFD2"/>
<path d="M48.1617 24.4213C47.6514 25.0183 46.7542 24.8249 46.3673 24.0344C46.324 23.9443 46.2672 23.8609 46.2206 23.7742C46.1939 23.8676 46.1705 23.9643 46.1405 24.0577C46.0438 24.3479 45.8103 24.4113 45.5001 24.2845C45.2767 24.1945 45.0232 24.1044 44.7864 24.1144C43.8091 24.1611 42.9186 23.961 42.1348 23.3406C42.0781 23.2973 41.8813 23.404 41.7646 23.4707C41.6712 23.5207 41.6011 23.6141 41.5211 23.6875C41.4444 23.5841 41.331 23.4941 41.301 23.3807C41.0808 22.5635 41.0808 22.5635 40.2503 22.5001C40.1303 22.4901 39.9802 22.4368 39.9068 22.35C39.5799 21.9565 39.2764 21.5429 38.9629 21.136C40.9274 21.4862 42.8352 22.0432 44.6763 22.8003C45.8603 23.2873 47.001 23.8776 48.1617 24.4213Z" fill="#0E83C3"/>
<path d="M51.0368 20.9062C51.4538 20.8328 51.7373 20.1257 51.4671 19.8055C51.4204 19.7522 51.287 19.7655 51.1936 19.7655C51.0535 19.7622 50.9101 19.7689 50.77 19.7722C50.8367 19.6321 50.8667 19.4387 50.9768 19.3619C51.3103 19.1251 51.5772 18.8717 51.5271 18.4214C53.1114 19.2019 54.3822 20.2892 54.9925 22.0102C54.3488 22.3337 54.0253 22.8774 53.9119 23.5678C52.9513 22.6773 51.9941 21.7901 51.0368 20.9062Z" fill="#00ACE0"/>
<path d="M30.659 6.27072C29.8786 5.60032 29.2048 4.85988 29.1115 3.77256C29.0514 3.08882 29.3583 2.51514 29.8919 2.15826C30.5456 1.72467 31.2827 1.41115 31.9898 1.05094C32.0432 1.02425 32.1166 1.03426 32.1833 1.02759C32.1466 1.07762 32.1166 1.13432 32.0732 1.17768C31.633 1.61461 31.3128 2.1149 31.3861 2.76529C31.4162 3.03545 31.5329 3.29894 31.6096 3.56577C31.633 3.61246 31.6563 3.65582 31.6796 3.70252L31.6897 3.71586C31.5529 4.30288 31.4595 4.90657 31.2594 5.47358C31.1493 5.77042 30.8625 6.00723 30.659 6.27072Z" fill="#405683"/>
<path d="M26.2359 23.9476C26.2093 24.1811 26.1759 24.4112 26.1592 24.6447C26.1392 24.9282 26.0525 25.1584 25.739 25.2284C23.044 24.4813 20.8661 21.9064 20.6926 19.2715C20.6893 19.2448 20.6826 19.2181 20.686 19.1915C20.696 19.0914 20.7093 18.988 20.7193 18.8879C20.7727 18.9713 20.8361 19.048 20.8727 19.1348C21.2663 20.142 21.82 21.0659 22.6672 21.7263C23.4776 22.3567 24.3882 22.8636 25.262 23.4106C25.5789 23.6108 25.9124 23.7709 26.2359 23.9476Z" fill="#2F435B"/>
<path d="M39.2036 14.3321C39.0802 14.7457 38.9468 15.156 38.8467 15.5762C38.8267 15.6529 38.9334 15.783 39.0135 15.853C39.0535 15.8897 39.1736 15.8664 39.2403 15.8364C39.9974 15.4895 40.2676 15.853 40.3643 16.5468C40.4143 16.907 40.5677 17.0371 40.9146 17.0871C41.088 17.1105 41.4749 17.0671 41.3315 17.484C39.824 17.1205 38.3131 16.7569 36.8055 16.3967C36.9756 16.1132 37.0123 15.7997 36.8222 15.5362C36.3819 14.9325 36.5553 14.3388 36.7955 13.7351C36.8555 13.7384 36.9155 13.7418 36.9756 13.7418C37.049 13.7551 37.1223 13.7651 37.1957 13.7785C37.8661 13.9619 38.5332 14.1454 39.2036 14.3321Z" fill="#038BC9"/>
<path d="M36.7952 13.7313C36.5584 14.335 36.3816 14.9254 36.8219 15.5324C37.0153 15.7959 36.9753 16.1094 36.8052 16.3929C35.6945 16.3496 34.6105 16.1761 33.5933 15.6892C33.4632 15.6258 33.3198 15.5991 33.1797 15.5524C33.3698 15.5524 33.4032 15.489 33.3765 15.2856C33.2831 14.6319 33.4098 14.5018 33.9835 14.1516C34.1669 14.0382 34.2136 13.7013 34.307 13.4612C34.3137 13.4412 34.1636 13.3177 34.1336 13.3344C33.6366 13.5979 33.78 13.2043 33.76 12.9775C34.774 13.231 35.7846 13.4812 36.7952 13.7313Z" fill="#3374B7"/>
<path d="M40.6409 3.8124C40.5575 4.04921 40.4741 4.28935 40.3841 4.52282C40.2173 4.96642 39.8737 5.1065 39.4301 5.06981C38.0527 4.50281 36.8553 3.68566 35.9214 2.50829C36.0748 2.4149 36.2783 2.3582 36.3683 2.22145C36.6885 1.74116 36.9854 1.62109 37.5357 1.77118C37.7091 1.81787 37.9092 1.77452 38.096 1.77452C38.9432 2.45492 39.7904 3.13199 40.6409 3.8124Z" fill="#009AD2"/>
<path d="M45.9937 31.2217C46.5974 31.7387 47.161 32.2823 47.1577 33.1662C47.1544 34.3602 46.0871 35.4842 44.8963 35.5376C44.8363 35.5409 44.7096 35.4042 44.7196 35.3908C45.2432 34.4303 44.9097 33.5664 44.4261 32.7159C44.386 32.6459 44.356 32.5725 44.3193 32.5024C44.5094 32.269 44.7029 32.0422 44.8863 31.8054C44.9931 31.6653 45.0598 31.5719 45.1632 31.822C45.1999 31.9121 45.3666 31.9955 45.4734 31.9955C45.5434 31.9955 45.6168 31.8421 45.6768 31.7487C45.7869 31.5752 45.8869 31.3985 45.9937 31.2217Z" fill="#2D4259"/>
<path d="M33.7633 12.9778C33.7833 13.2046 33.6399 13.5948 34.1368 13.3347C34.1668 13.318 34.3169 13.4414 34.3103 13.4614C34.2169 13.7016 34.1702 14.0418 33.9867 14.1518C33.4164 14.502 33.2863 14.6321 33.3797 15.2858C33.4097 15.4893 33.373 15.5527 33.1829 15.5527C32.3791 15.2592 31.5753 14.9657 30.7715 14.6721C30.8248 14.6688 30.8782 14.6755 30.9282 14.6588C31.145 14.5921 31.3585 14.5187 31.572 14.4487C31.5053 14.2419 31.4319 14.0384 31.3685 13.8316C31.2551 13.4614 31.1484 13.0879 31.035 12.7176C30.9583 12.4575 30.8749 12.2007 30.7982 11.9438C31.7854 12.2907 32.776 12.6343 33.7633 12.9778Z" fill="#40659F"/>
<path d="M28.1838 32.7566C30.622 32.8333 32.7699 33.7272 34.7411 35.098C34.9045 35.2114 35.0146 35.5249 35.0012 35.7384C34.9812 36.0419 34.6844 36.0586 34.4176 36.0852C33.5537 36.162 32.91 35.8718 32.4164 35.1313C31.9761 34.4676 31.2723 34.1007 30.5319 33.8439C29.528 33.4937 28.5074 33.1802 27.4968 32.85C27.4367 32.83 27.3834 32.7966 27.3267 32.7699C27.3867 32.7666 27.4467 32.7566 27.5068 32.7566C27.7302 32.7566 27.957 32.7566 28.1838 32.7566Z" fill="#31445E"/>
<path d="M38.2462 34.8042C38.413 34.7542 38.5897 34.7242 38.7398 34.6475C38.8332 34.6008 38.97 34.424 38.9566 34.4073C38.8366 34.2472 38.6931 34.0605 38.9366 33.9537C39.1301 33.8703 39.3836 33.927 39.6104 33.9237C39.6304 33.9237 39.6504 33.9571 39.6704 33.9737C40.1307 34.3073 40.5876 34.6441 41.0479 34.9777C41.5148 35.4947 41.4615 35.9783 40.8244 36.2351C40.3208 36.4352 39.7604 36.5219 39.2135 36.5853C38.7565 36.6353 38.2862 36.5753 37.8193 36.562C37.7726 36.562 37.7259 36.5419 37.6792 36.5319C37.7126 36.4952 37.7392 36.4552 37.7793 36.4285C37.8626 36.3652 37.9527 36.3085 38.0394 36.2418C38.6598 35.7748 38.7098 35.4179 38.2462 34.8042Z" fill="#30445E"/>
<path d="M30.6587 6.2706C30.8621 6.00711 31.149 5.7703 31.2557 5.47012C31.4525 4.90311 31.5492 4.29942 31.686 3.7124C32.1896 4.29608 32.6899 4.87977 33.1935 5.46011C32.8133 5.66357 32.9667 6.01711 32.9801 6.30728C33.0034 6.89764 33.0735 7.48465 33.1268 8.07167C32.1162 7.7248 31.3291 7.07775 30.6587 6.2706Z" fill="#257DA6"/>
<path d="M38.0955 1.77423C37.9088 1.77423 37.712 1.81759 37.5352 1.7709C36.9815 1.62414 36.688 1.74088 36.3678 2.22117C36.2778 2.35458 36.0743 2.41462 35.9209 2.508C35.3939 2.21783 34.9537 1.40068 35.037 0.813661C35.0971 0.383404 35.4106 0.173279 35.7975 0.106572C36.4746 -0.00682894 37.0683 0.156601 37.4718 0.756959C37.692 1.09049 37.8887 1.43737 38.0955 1.77423Z" fill="#1882B1"/>
<path d="M33.1191 19.5251C33.3592 19.9687 33.8028 20.3123 33.7828 20.886C33.7828 20.906 33.9229 20.966 33.9729 20.946C34.3531 20.7959 34.3331 21.006 34.3298 21.2829C34.3264 21.4863 34.4398 21.6931 34.4432 21.8999C34.4465 22.05 34.3498 22.2034 34.2998 22.3535C33.5393 22.1334 32.7755 21.9166 32.0151 21.6964C32.1351 21.7064 32.2519 21.7265 32.3719 21.7265C32.4953 21.7265 32.6188 21.7098 32.7422 21.6998C32.7155 21.563 32.7322 21.3863 32.6521 21.2995C32.3719 20.986 32.2986 20.6325 32.3152 20.2289C32.3319 19.8287 32.2252 19.772 31.8783 19.9721C31.7249 20.0621 31.5448 20.2055 31.4747 19.9421C31.4414 19.822 31.5815 19.6252 31.6882 19.5118C31.7849 19.4084 31.9484 19.365 32.0851 19.2983C32.4286 19.3717 32.7755 19.4484 33.1191 19.5251Z" fill="#405F93"/>
<path d="M45.9941 31.222C45.8873 31.3988 45.7873 31.5756 45.6772 31.749C45.6172 31.8424 45.5405 31.9958 45.4738 31.9958C45.367 31.9958 45.2036 31.9124 45.1636 31.8224C45.0635 31.5722 44.9968 31.6689 44.8867 31.8057C44.7033 32.0425 44.5099 32.2693 44.3197 32.5028C43.7894 32.0959 43.2558 31.6923 42.7255 31.2854C42.7221 31.152 42.7088 31.0186 42.7221 30.8885C42.7388 30.7217 42.7388 30.4382 42.8088 30.4182C43.0056 30.3615 43.2791 30.3448 43.4392 30.4415C43.6327 30.5583 43.7427 30.8151 43.8962 31.0052C43.9962 31.1286 44.1029 31.2454 44.2097 31.3688C44.2997 31.2387 44.4431 31.1153 44.4698 30.9719C44.5332 30.635 44.7033 30.4849 45.0368 30.5016C45.4271 30.6483 45.804 30.8084 45.9941 31.222Z" fill="#3C507A"/>
<path d="M52.2478 30.0177C52.2412 30.0744 52.2345 30.1311 52.2278 30.1845C52.2111 30.2412 52.1911 30.2945 52.1744 30.3512C52.011 31.1717 51.4373 31.6754 50.8036 32.1323C50.6102 32.2724 50.4067 32.3958 50.2099 32.5259C50.2366 32.3024 50.2933 32.0789 50.2833 31.8588C50.2566 31.3051 50.1966 30.7515 50.1499 30.1978C50.2366 30.1078 50.3267 29.9343 50.4134 29.9343C51.0238 29.9443 51.6341 29.9877 52.2478 30.0177Z" fill="#384F6D"/>
<path d="M53.9087 23.5642C54.0221 22.8738 54.3456 22.3301 54.9893 22.0066C55.4163 22.6403 55.5764 23.3341 55.4563 24.0878C55.1594 24.5981 54.8659 25.1084 54.5691 25.6187C54.349 24.935 54.1288 24.2513 53.9087 23.5642Z" fill="#0A87B6"/>
<path d="M52.2484 30.0181C51.6347 29.9881 51.0243 29.9447 50.4106 29.938C50.3239 29.938 50.2372 30.1081 50.1471 30.2015C49.9136 29.7413 49.6768 29.2777 49.4434 28.8174C49.6468 28.774 49.8503 28.7006 50.0537 28.7006C50.2305 28.7006 50.4106 28.7874 50.5874 28.8407C50.9843 28.9608 51.2278 28.784 51.4379 28.4572C51.5646 28.2637 51.7547 28.1103 51.9182 27.9402C52.3684 28.5772 52.3985 29.2843 52.2484 30.0181Z" fill="#366E93"/>
<path d="M54.5687 25.619C54.8655 25.1087 55.159 24.5984 55.4559 24.0881C55.676 25.1788 55.2024 26.086 54.6954 26.9865C54.6788 27.0165 54.6421 27.0399 54.6154 27.0632C54.5954 27.0065 54.562 26.9532 54.562 26.8965C54.562 26.4729 54.5653 26.046 54.5687 25.619Z" fill="#3F70A2"/>
<path d="M55.9102 18.3442C56.1436 18.2341 56.3771 18.1274 56.6106 18.0173C56.8641 18.7578 56.8307 19.5049 56.6639 20.2553C56.6506 20.3187 56.6306 20.3821 56.6172 20.4454C56.5872 20.3887 56.5472 20.3354 56.5305 20.2754C56.3204 19.635 56.1169 18.9912 55.9102 18.3442Z" fill="#2789B6"/>
<path d="M21.9196 25.6186C21.8862 25.6519 21.8529 25.6853 21.8162 25.7153C21.7795 25.6086 21.7462 25.5052 21.7095 25.3984C21.7828 25.4718 21.8496 25.5452 21.9196 25.6186Z" fill="#7A8695"/>
<path d="M21.4565 25.0819C21.4969 25.0584 21.5271 25.0382 21.5573 25.0181C21.5708 25.0517 21.5976 25.0853 21.5943 25.1155C21.5909 25.139 21.5506 25.1558 21.5271 25.176C21.5069 25.1491 21.4834 25.1222 21.4565 25.0819Z" fill="#AAAFBB"/>
<path d="M37.1947 13.7779C37.1214 13.7646 37.048 13.7546 36.9746 13.7412C37.048 13.7512 37.1214 13.7646 37.1947 13.7779Z" fill="#3374B7"/>
<path d="M24.3285 15.7806C24.2983 15.7302 24.268 15.6798 24.2378 15.6294C24.268 15.6764 24.2983 15.7268 24.3285 15.7806Z" fill="#3E5380"/>
<path d="M31.6765 3.69975C31.653 3.65272 31.6295 3.60904 31.606 3.56201C31.6295 3.60904 31.653 3.65272 31.6765 3.69975Z" fill="#257DA6"/>
<path d="M52.1748 30.356C52.1916 30.2989 52.2118 30.2451 52.2286 30.188C52.2118 30.2417 52.1916 30.2989 52.1748 30.356Z" fill="#366E93"/>
<path d="M38.3966 27.1435C38.3697 27.12 38.3462 27.0931 38.3193 27.0696C38.3429 27.0931 38.3697 27.1166 38.3966 27.1435Z" fill="#425B93"/>
</svg>
