<svg width="13" height="13" viewBox="0 0 13 13" fill="none" xmlns="http://www.w3.org/2000/svg">
<path d="M11.9059 8.948C11.0973 8.948 10.3211 8.81863 9.59667 8.5793C9.37028 8.50815 9.11802 8.5599 8.9369 8.73454L7.51386 10.1576C5.68332 9.22614 4.18266 7.73195 3.25121 5.89493L4.67425 4.46542C4.85537 4.29725 4.90711 4.04498 4.83596 3.81859C4.59663 3.09413 4.46727 2.31793 4.46727 1.50938C4.46727 1.15362 4.17619 0.862549 3.82043 0.862549H1.5565C1.20074 0.862549 0.909668 1.15362 0.909668 1.50938C0.909668 7.58317 5.83209 12.5056 11.9059 12.5056C12.2616 12.5056 12.5527 12.2145 12.5527 11.8588V9.59483C12.5527 9.23907 12.2616 8.948 11.9059 8.948ZM11.259 6.68407H12.5527C12.5527 3.4693 9.94596 0.862549 6.73119 0.862549V2.15622C9.23445 2.15622 11.259 4.18082 11.259 6.68407ZM8.6717 6.68407H9.96537C9.96537 4.8988 8.51646 3.44989 6.73119 3.44989V4.74356C7.80494 4.74356 8.6717 5.61032 8.6717 6.68407Z" fill="#468CCC"/>
</svg>
